<svg id="block-quote-line" xmlns="http://www.w3.org/2000/svg" width="34.036" height="26.391" viewBox="0 0 34.036 26.391">
  <path id="Path_4524" data-name="Path 4524" d="M15.109,21.421a7.15,7.15,0,0,0-3.5.929A23.956,23.956,0,0,1,18.842,12.4a1.827,1.827,0,1,0-2.323-2.82C9.883,14.967,6.93,22.433,6.93,27.062a8.428,8.428,0,0,0,5.093,7.681,7.3,7.3,0,0,0,3.119.73,7.034,7.034,0,1,0,0-14.052Z" transform="translate(-6.93 -9.09)" fill="#004f5d"/>
  <path id="Path_4525" data-name="Path 4525" d="M26.249,21.448a7.117,7.117,0,0,0-3.5.929,24.056,24.056,0,0,1,7.217-9.954A1.825,1.825,0,1,0,27.659,9.6C21.023,14.995,18.07,22.46,18.07,27.089a8.428,8.428,0,0,0,4.977,7.648,7.25,7.25,0,0,0,3.2.73,7.034,7.034,0,1,0,0-14.052Z" transform="translate(0.412 -9.118)" fill="#004f5d"/>
</svg>
