<svg xmlns="http://www.w3.org/2000/svg" width="256.745" height="258.802" viewBox="0 0 256.745 258.802">
  <g id="Group_3099" data-name="Group 3099" transform="matrix(-0.629, -0.777, 0.777, -0.629, -1138.341, -1362.585)" opacity="0.73" style="mix-blend-mode: multiply;isolation: isolate">
    <g id="Group_3098" data-name="Group 3098" transform="translate(-2062.358 -78.97)">
      <path id="Path_3545" data-name="Path 3545" d="M266.525,352.159c2.685-4.42,7.832-4.75,11.758-2.366,3.289,2,6.62,6.464,3.455,11.687-2.6,4.275-7.73,4.759-11.8,2.288C265.686,361.185,263.978,356.35,266.525,352.159Zm12.733,7.7c1.311-2.159.881-5.2-2.405-7.2-2.592-1.572-6.106-1.852-7.856,1.025-1.443,2.384-.649,5.289,2.537,7.225C273.795,362.282,277.372,362.965,279.257,359.862Z" transform="translate(-265.331 -292.523)" fill="#6ca93d"/>
      <path id="Path_3546" data-name="Path 3546" d="M285.3,349.227a9.413,9.413,0,0,1,2.09,2.18c.932,1.533,1.32,4.438-1.4,7.588-1.771,2.057-4.438,3.536-7.134,2.387a11.7,11.7,0,0,1-2.8-2.057l-7.646-6.59,2.086-2.423,7.9,6.81a5.378,5.378,0,0,0,1.53,1.1c.968.421,2.33.388,3.8-1.323.268-.31,1.789-2.078.788-3.861a5.965,5.965,0,0,0-1.479-1.56l-7.778-6.7,2.072-2.405Z" transform="translate(-259.143 -304.464)" fill="#6ca93d"/>
      <path id="Path_3547" data-name="Path 3547" d="M278.523,340.117c2.564-2.15,5.7-1.921,7.76.532a4.622,4.622,0,0,1,.436,5.724l7.348,2.883-2.787,2.336-6.611-2.682-2.195,1.837,4.05,4.832-2.414,2.026-10.917-13.018Zm2.249,8.6,1.882-1.579c1.75-1.47,2.426-2.913,1.143-4.443-1.176-1.4-2.646-1.206-4.212.108l-2.213,1.855Z" transform="translate(-249.558 -311.941)" fill="#6ca93d"/>
      <path id="Path_3548" data-name="Path 3548" d="M290.967,337.8a4.94,4.94,0,0,0-5.1-.174c-.638.337-2.685,1.711-1.846,3.307.616,1.173,1.912.845,3.689.346l1.753-.49c2.634-.731,5.625-1.137,7.213,1.885,1.96,3.728-1.152,6.8-3.83,8.214-2.514,1.32-5.71,1.858-8.268.243l1.5-2.883a5.766,5.766,0,0,0,5.848-.193c1.638-.863,2.537-2.2,1.852-3.5-.649-1.235-1.795-.986-3.915-.415l-2.137.583c-2.138.58-4.949,1.025-6.494-1.912-1.4-2.661-.312-5.815,3.479-7.8a8.031,8.031,0,0,1,7.664-.147Z" transform="translate(-234.597 -321.351)" fill="#6ca93d"/>
      <path id="Path_3549" data-name="Path 3549" d="M293.577,335.746l4.765,13.274-2.986,1.073-4.765-13.277-4.341,1.56-.965-2.694,11.737-4.212.965,2.691Z" transform="translate(-225.293 -326.337)" fill="#6ca93d"/>
      <path id="Path_3550" data-name="Path 3550" d="M297.063,330.581c5.06-1.043,8.812,2.5,9.741,7,.776,3.764-.226,9.248-6.2,10.484-4.895,1.01-8.743-2.415-9.705-7.074C289.889,336.116,292.264,331.576,297.063,330.581Zm3.034,14.564c2.471-.508,4.408-2.9,3.629-6.662-.61-2.965-2.8-5.727-6.1-5.045-2.727.562-4.311,3.121-3.557,6.771C294.606,342.8,296.545,345.881,300.1,345.144Z" transform="translate(-214.491 -328.492)" fill="#6ca93d"/>
      <path id="Path_3551" data-name="Path 3551" d="M304.321,329.771c3.34-.153,5.7,1.93,5.845,5.126a4.626,4.626,0,0,1-3.127,4.816l4.089,6.75-3.629.168-3.629-6.145-2.859.132.288,6.3-3.151.144-.776-16.972Zm-3.434,8.2,2.45-.111c2.285-.105,3.7-.845,3.608-2.841-.087-1.825-1.371-2.561-3.416-2.468l-2.883.132Z" transform="translate(-201.038 -329.763)" fill="#6ca93d"/>
      <path id="Path_3552" data-name="Path 3552" d="M303.163,346.747l1.167-16.939,3.118.216-1.166,16.939Z" transform="translate(-189.42 -329.674)" fill="#6ca93d"/>
      <path id="Path_3553" data-name="Path 3553" d="M305.861,346.8l3.079-16.713,11.882,2.189-.514,2.793-8.806-1.621-.725,3.93,8.076,1.485-.5,2.7-8.076-1.485-.821,4.474,9.4,1.732-.517,2.817Z" transform="translate(-184.007 -329.116)" fill="#6ca93d"/>
      <path id="Path_3554" data-name="Path 3554" d="M325.115,338.8a4.92,4.92,0,0,0-3.343-3.845c-.683-.238-3.082-.8-3.68.905-.436,1.251.689,1.972,2.261,2.931l1.557.95c2.327,1.428,4.669,3.34,3.542,6.563-1.389,3.975-5.761,3.8-8.626,2.8-2.679-.935-5.252-2.9-5.818-5.881l3.133-.866a5.771,5.771,0,0,0,4.131,4.146c1.75.61,3.343.352,3.827-1.034.46-1.317-.505-1.984-2.366-3.145l-1.885-1.169c-1.885-1.167-4.128-2.919-3.034-6.052.992-2.841,4.041-4.2,8.084-2.784a8.04,8.04,0,0,1,5.334,5.511Z" transform="translate(-173.679 -325.777)" fill="#6ca93d"/>
      <path id="Path_3555" data-name="Path 3555" d="M321.035,341.305l1.909-2.946,2.685,1.741-1.909,2.947Z" transform="translate(-153.559 -312.516)" fill="#6ca93d"/>
      <path id="Path_3556" data-name="Path 3556" d="M341.7,344.494c3.533,3.776,2.459,8.83-.9,11.966-2.811,2.628-8.018,4.63-12.188.168-3.415-3.656-2.5-8.728.983-11.981C333.237,341.247,338.351,340.91,341.7,344.494Zm-10.856,10.183c1.723,1.846,4.774,2.255,7.583-.373,2.216-2.069,3.433-5.379,1.133-7.841-1.906-2.038-4.919-2.054-7.639.49C329.987,348.76,328.363,352.025,330.843,354.677Z" transform="translate(-142.65 -305.314)" fill="#6ca93d"/>
      <path id="Path_3557" data-name="Path 3557" d="M341.4,363.621a9.332,9.332,0,0,1-2.664,1.416c-1.729.481-4.627.06-6.918-3.406-1.5-2.264-2.195-5.234-.358-7.513a11.492,11.492,0,0,1,2.739-2.129l8.418-5.571,1.762,2.667-8.7,5.755a5.383,5.383,0,0,0-1.47,1.173c-.671.818-1.007,2.138.238,4.023.225.34,1.512,2.285,3.5,1.8a5.987,5.987,0,0,0,1.906-1l8.556-5.661,1.75,2.646Z" transform="translate(-134.848 -296.345)" fill="#6ca93d"/>
      <path id="Path_3558" data-name="Path 3558" d="M351.333,358.784c1.365,3.058.289,6.013-2.634,7.321a4.632,4.632,0,0,1-5.628-1.148l-4.789,6.278-1.479-3.319,4.392-5.628-1.17-2.616-5.758,2.574-1.287-2.88,15.517-6.93Zm-8.89-.192,1,2.243c.932,2.087,2.137,3.13,3.959,2.315,1.672-.746,1.885-2.213,1.052-4.08l-1.178-2.637Z" transform="translate(-129.59 -284.274)" fill="#6ca93d"/>
      <path id="Path_3559" data-name="Path 3559" d="M349.239,371.608a4.937,4.937,0,0,0,1.566-4.847c-.147-.706-.905-3.051-2.673-2.685-1.293.271-1.335,1.605-1.341,3.448l-.015,1.822c-.018,2.727-.454,5.715-3.794,6.413-4.119.86-6.221-2.973-6.84-5.941-.581-2.778-.22-5.995,2.038-8.012l2.354,2.234a5.771,5.771,0,0,0-1.416,5.673c.379,1.813,1.419,3.046,2.856,2.745,1.365-.283,1.437-1.455,1.473-3.647l.03-2.216c.027-2.216.373-5.039,3.62-5.715,2.943-.613,5.673,1.3,6.548,5.484a8.058,8.058,0,0,1-1.969,7.411Z" transform="translate(-123.738 -267.55)" fill="#6ca93d"/>
      <path id="Path_3560" data-name="Path 3560" d="M351.049,374.178l-14.085.941-.211-3.166,14.086-.941-.31-4.609,2.853-.192.836,12.456-2.856.189Z" transform="translate(-122.021 -256.63)" fill="#6ca93d"/>
      <path id="Path_3561" data-name="Path 3561" d="M354.448,379.976c-.376,5.159-4.813,7.8-9.4,7.468-3.842-.28-8.848-2.742-8.4-8.833.361-4.994,4.711-7.763,9.462-7.417C351.081,371.552,354.8,375.082,354.448,379.976Zm-14.855-1.055c-.183,2.519,1.587,5.033,5.427,5.313,3.025.219,6.281-1.133,6.524-4.492.2-2.784-1.828-5.006-5.55-5.276C343.354,374.273,339.854,375.3,339.593,378.921Z" transform="translate(-122.284 -246.689)" fill="#6ca93d"/>
      <path id="Path_3562" data-name="Path 3562" d="M353.28,387.984a5.222,5.222,0,0,1-6.524,4.221,4.625,4.625,0,0,1-3.773-4.32l-7.6,2.086.83-3.533,6.894-1.81.655-2.784-6.13-1.443.721-3.064,16.518,3.885Zm-6.945-5.532-.559,2.384c-.523,2.222-.2,3.782,1.744,4.239,1.777.418,2.835-.617,3.3-2.607l.658-2.808Z" transform="translate(-124.772 -234.304)" fill="#6ca93d"/>
      <path id="Path_3563" data-name="Path 3563" d="M335.644,382.674l15.971,5.763-1.064,2.94-15.965-5.766Z" transform="translate(-126.369 -223.597)" fill="#6ca93d"/>
      <path id="Path_3564" data-name="Path 3564" d="M337.767,385.208l15.222,7.546-5.367,10.824-2.543-1.26,3.977-8.022-3.581-1.773-3.647,7.351-2.456-1.218,3.647-7.351-4.077-2.023-4.245,8.563-2.564-1.271Z" transform="translate(-131.291 -218.512)" fill="#6ca93d"/>
      <path id="Path_3565" data-name="Path 3565" d="M339.081,404.961a4.916,4.916,0,0,0,4.609-2.156c.418-.589,1.615-2.745.141-3.785-1.079-.761-2.08.12-3.433,1.371l-1.344,1.23c-2.008,1.849-4.486,3.569-7.276,1.6-3.433-2.426-2.066-6.575-.319-9.05,1.636-2.318,4.233-4.248,7.246-3.975l-.027,3.244a5.773,5.773,0,0,0-5.114,2.832c-1.068,1.512-1.257,3.115-.057,3.96,1.137.8,2.045.06,3.668-1.41l1.641-1.491c1.639-1.488,3.939-3.163,6.648-1.251,2.453,1.732,2.919,5.033.451,8.526a8.035,8.035,0,0,1-6.756,3.617Z" transform="translate(-136.261 -208.549)" fill="#6ca93d"/>
      <path id="Path_3566" data-name="Path 3566" d="M327.891,398.808l2.321,2.64-2.405,2.111-2.318-2.64Z" transform="translate(-144.622 -191.224)" fill="#6ca93d"/>
      <path id="Path_3567" data-name="Path 3567" d="M328.4,419.176c-4.6,2.357-9.155-.057-11.25-4.14-1.753-3.421-2.252-8.972,3.178-11.756,4.447-2.282,9.071-.009,11.238,4.224C333.841,411.931,332.764,416.939,328.4,419.176Zm-6.81-13.223c-2.246,1.151-3.473,3.969-1.717,7.387,1.38,2.694,4.227,4.771,7.219,3.238,2.48-1.272,3.322-4.161,1.62-7.474C327.515,406.753,324.821,404.3,321.6,405.954Z" transform="translate(-163.759 -184.061)" fill="#6ca93d"/>
      <path id="Path_3568" data-name="Path 3568" d="M310.863,413.9a9.375,9.375,0,0,1-.631-2.953c.012-1.8,1.215-4.47,5.18-5.724,2.592-.821,5.64-.674,7.333,1.72a11.716,11.716,0,0,1,1.293,3.223l3.046,9.633-3.052.965-3.148-9.955a5.216,5.216,0,0,0-.725-1.738c-.6-.872-1.78-1.557-3.932-.875-.391.123-2.619.824-2.7,2.871a6.017,6.017,0,0,0,.442,2.1l3.094,9.8-3.028.956Z" transform="translate(-175.236 -179.247)" fill="#6ca93d"/>
      <path id="Path_3569" data-name="Path 3569" d="M312.314,423.884c-3.31.472-5.86-1.377-6.311-4.543a4.627,4.627,0,0,1,2.652-5.09l-4.717-6.326,3.6-.511,4.2,5.767,2.835-.406-.89-6.238,3.118-.445,2.4,16.813Zm2.628-8.487-2.429.345c-2.264.322-3.6,1.19-3.313,3.166.256,1.813,1.609,2.42,3.632,2.131l2.857-.406Z" transform="translate(-187.865 -176.61)" fill="#6ca93d"/>
      <path id="Path_3570" data-name="Path 3570" d="M298.755,418.628a4.926,4.926,0,0,0,4.236,2.832c.719.051,3.184-.039,3.313-1.84.09-1.317-1.182-1.723-2.953-2.234l-1.747-.508c-2.624-.766-5.382-2-5.141-5.4.295-4.2,4.561-5.177,7.583-4.961,2.832.2,5.829,1.425,7.158,4.146l-2.793,1.66a5.77,5.77,0,0,0-5.075-2.913c-1.846-.132-3.319.535-3.422,2-.1,1.389,1.007,1.783,3.109,2.414l2.125.631c2.126.635,4.747,1.735,4.513,5.045-.21,3-2.8,5.108-7.065,4.807a8.052,8.052,0,0,1-6.6-3.917Z" transform="translate(-203.791 -175.816)" fill="#6ca93d"/>
      <path id="Path_3571" data-name="Path 3571" d="M295.775,419.668l2.91-13.815,3.106.652-2.91,13.815,4.519.95-.59,2.8L290.6,421.5l.592-2.8Z" transform="translate(-214.638 -177.088)" fill="#6ca93d"/>
      <path id="Path_3572" data-name="Path 3572" d="M290.5,421.583c-4.865-1.765-6.2-6.756-4.63-11.073,1.311-3.62,5.045-7.769,10.787-5.682,4.708,1.708,6.19,6.65,4.564,11.127C299.526,420.637,295.116,423.258,290.5,421.583Zm5.06-14.007c-2.375-.86-5.279.156-6.593,3.776-1.034,2.85-.616,6.356,2.547,7.5,2.628.953,5.318-.4,6.59-3.906C299.012,412.465,298.979,408.818,295.564,407.576Z" transform="translate(-225.364 -180.269)" fill="#6ca93d"/>
      <path id="Path_3573" data-name="Path 3573" d="M282.812,418.852a5.221,5.221,0,0,1-2.273-7.432,4.623,4.623,0,0,1,5.189-2.45l.072-7.886,3.172,1.765-.147,7.131,2.5,1.392,3.067-5.5,2.751,1.533-8.259,14.834Zm7.231-5.168L287.9,412.49c-2-1.113-3.587-1.224-4.558.52-.89,1.6-.181,2.9,1.6,3.89l2.522,1.407Z" transform="translate(-236.325 -186.659)" fill="#6ca93d"/>
      <path id="Path_3574" data-name="Path 3574" d="M289.115,401.55,279.2,415.314l-2.535-1.825,9.909-13.764Z" transform="translate(-242.583 -189.384)" fill="#6ca93d"/>
      <path id="Path_3575" data-name="Path 3575" d="M292.2,404.42l-11.4,12.567-8.932-8.106,1.906-2.1,6.62,6.007,2.679-2.953L277,404.326l1.84-2.029,6.07,5.5,3.049-3.361-7.062-6.413,1.918-2.117Z" transform="translate(-252.222 -197.037)" fill="#6ca93d"/>
      <path id="Path_3576" data-name="Path 3576" d="M271.766,400.026a4.922,4.922,0,0,0,.824,5.027c.451.559,2.2,2.3,3.6,1.16,1.028-.829.454-2.035-.385-3.68l-.821-1.624c-1.23-2.435-2.213-5.288.436-7.438,3.268-2.649,6.891-.2,8.8,2.15,1.786,2.2,2.94,5.228,1.858,8.055l-3.118-.908a5.77,5.77,0,0,0-1.338-5.691c-1.167-1.44-2.655-2.057-3.794-1.133-1.082.878-.613,1.954.358,3.917l.992,1.984c.989,1.981,1.975,4.651-.6,6.738-2.333,1.894-5.637,1.446-8.328-1.879a8.028,8.028,0,0,1-1.645-7.486Z" transform="translate(-259.38 -204.237)" fill="#6ca93d"/>
    </g>
  </g>
</svg>
